<svg width="20" height="20" viewBox="0 0 20 20" xmlns="http://www.w3.org/2000/svg">
  <path fill-rule="evenodd" fill={fill} clip-rule="evenodd" d="M14.4146 8.23938C14.4704 8.29519 14.4983 8.35936 14.4983 8.43191C14.4983 8.50445 14.4704 8.56863 14.4146 8.62443L10.514 12.5251C10.4581 12.5809 10.394 12.6088 10.3214 12.6088C10.2489 12.6088 10.1847 12.5809 10.1289 12.5251L6.22824 8.62443C6.17243 8.56863 6.14453 8.50445 6.14453 8.43191C6.14453 8.35936 6.17243 8.29519 6.22824 8.23938L6.64676 7.82086C6.70257 7.76505 6.76674 7.73715 6.83929 7.73715C6.91183 7.73715 6.97601 7.76505 7.03181 7.82086L10.3214 11.1105L13.611 7.82086C13.6669 7.76505 13.731 7.73715 13.8036 7.73715C13.8761 7.73715 13.9403 7.76505 13.9961 7.82086L14.4146 8.23938Z" />
</svg>
